<svg width="24" height="25" viewBox="0 0 24 25" fill="none" xmlns="http://www.w3.org/2000/svg">
<path fill-rule="evenodd" clip-rule="evenodd" d="M21.2588 6.96877C21.1665 6.74052 20.968 6.57214 20.7277 6.51825C20.4875 6.46436 20.236 6.53183 20.0551 6.69877L16.2769 10.1853L14.6616 9.83846L14.3147 8.22315L17.8013 4.44502C17.9682 4.26403 18.0357 4.01263 17.9818 3.77237C17.9279 3.53212 17.7596 3.33362 17.5313 3.24127C15.4504 2.39951 13.0872 2.64725 11.2261 3.90226C9.36506 5.15726 8.24962 7.25533 8.25006 9.50002C8.24885 10.4335 8.44034 11.3571 8.81256 12.2131L3.16787 17.0938C3.15381 17.105 3.14068 17.1181 3.12756 17.1303C1.95585 18.302 1.95585 20.2018 3.12756 21.3735C4.29927 22.5452 6.19898 22.5452 7.37068 21.3735C7.38287 21.3613 7.396 21.3472 7.40725 21.3341L12.2869 15.6875C14.3752 16.6042 16.7852 16.4044 18.694 15.1563C20.6028 13.9082 21.7523 11.7807 21.7501 9.50002C21.7515 8.63244 21.5847 7.77282 21.2588 6.96877ZM15.0001 14.75C14.1123 14.7488 13.2393 14.523 12.4622 14.0938C12.152 13.9224 11.7641 13.9916 11.5322 14.2597L6.29162 20.3291C5.70188 20.8894 4.77301 20.8775 4.1978 20.3023C3.6226 19.7271 3.6107 18.7982 4.171 18.2085L10.2357 12.9688C10.5043 12.7368 10.5735 12.3483 10.4016 12.0378C9.42599 10.2732 9.54716 8.10582 10.7134 6.46098C11.8796 4.81613 13.8849 3.98454 15.8729 4.32127L12.9479 7.49096C12.7827 7.67012 12.7149 7.91834 12.766 8.15658L13.2966 10.625C13.3586 10.9134 13.5839 11.1387 13.8722 11.2006L16.3426 11.7313C16.5808 11.7824 16.829 11.7145 17.0082 11.5494L20.1779 8.6244C20.4336 10.1481 20.006 11.7072 19.0086 12.8872C18.0112 14.0671 16.5451 14.7485 15.0001 14.75Z" fill="#121417"/>
</svg>
